<?xml version="1.0" encoding="UTF-8" standalone="no"?><!DOCTYPE svg PUBLIC "-//W3C//DTD SVG 1.1//EN" "http://www.w3.org/Graphics/SVG/1.1/DTD/svg11.dtd"><svg width="100%" height="100%" viewBox="0 0 1211 488" version="1.1" xmlns="http://www.w3.org/2000/svg" xmlns:xlink="http://www.w3.org/1999/xlink" xml:space="preserve" xmlns:serif="http://www.serif.com/" style="fill-rule:evenodd;clip-rule:evenodd;stroke-linejoin:round;stroke-miterlimit:2;"><g id="Text"><g><path d="M506.539,19.605c1.187,27.321 1.972,40.126 3.66,84.611c0.801,21.084 2.4,74.639 2.38,74.288" style="fill:none;stroke:#fff;stroke-width:39.21px;stroke-linecap:round;stroke-miterlimit:1.5;"/><path d="M576.737,82.454c-2.392,2.409 -13.563,13.159 -32.311,35.185c-4.612,5.419 -15.089,19.116 -16.141,24.928c-1.158,6.397 28.613,20.163 34.002,23.615c7.421,4.754 19.966,10.415 19.147,11.747" style="fill:none;stroke:#fff;stroke-width:39.21px;stroke-linecap:round;stroke-miterlimit:1.5;"/></g><g><path d="M218.245,20.493c-0.262,27.346 -0.158,40.174 -0.831,84.687c-0.319,21.096 -1.562,74.661 -1.564,74.309" style="fill:none;stroke:#fff;stroke-width:39.21px;stroke-linecap:round;stroke-miterlimit:1.5;"/><path d="M285.012,86.976c-2.516,2.279 -14.242,12.422 -34.131,33.422c-4.894,5.168 -16.082,18.29 -17.44,24.037c-1.496,6.328 27.502,21.653 32.701,25.386c7.159,5.14 19.385,11.459 18.497,12.746" style="fill:none;stroke:#fff;stroke-width:39.21px;stroke-linecap:round;stroke-miterlimit:1.5;"/></g><path d="M714.002,92.843c-33.972,-10.399 -61.801,-0.647 -70.295,12.536c-0.292,0.453 -24.416,38.189 -2.384,57.696c34.608,30.643 79.414,9.108 81.599,-8.452c4.33,-34.815 1.094,-43.88 -8.92,-61.78c-1.983,-3.546 17.092,17.595 8.92,61.78c-0.287,1.552 -0.708,11.818 14.685,21.333" style="fill:none;stroke:#fff;stroke-width:39.21px;stroke-linecap:round;stroke-miterlimit:1.5;"/><path d="M419.661,94.46c-33.972,-10.399 -61.801,-0.647 -70.295,12.536c-0.292,0.453 -24.416,38.188 -2.384,57.696c34.608,30.642 79.414,9.108 81.599,-8.452c4.33,-34.815 1.094,-43.88 -8.92,-61.78c-1.984,-3.546 17.092,17.595 8.92,61.78c-0.287,1.551 -0.708,11.818 14.685,21.333" style="fill:none;stroke:#fff;stroke-width:39.21px;stroke-linecap:round;stroke-miterlimit:1.5;"/><path d="M854.921,87.264c-29.244,-1.097 -46.021,15.255 -51.295,26.685c-10.882,23.584 -7.577,50.71 13.389,62.069c25.557,13.846 62.55,12.365 70.6,-17.369c12.509,-46.204 -16.813,-63.527 -26.225,-68.565" style="fill:none;stroke:#fff;stroke-width:39.21px;stroke-linecap:round;stroke-miterlimit:1.5;"/><path d="M229.789,352.929c-29.244,-1.096 -46.021,15.256 -51.295,26.686c-10.883,23.584 -7.577,50.71 13.389,62.069c25.556,13.846 62.55,12.365 70.6,-17.37c12.509,-46.203 -16.813,-63.526 -26.226,-68.564" style="fill:none;stroke:#fff;stroke-width:39.21px;stroke-linecap:round;stroke-miterlimit:1.5;"/><path d="M1006.16,86.962c-27.246,-8.553 -52.191,-3.829 -56.265,15.518c-3.031,14.395 5.868,30.829 24.838,32.012c18.029,1.125 32.462,4.973 30.757,33.273c-1.172,19.468 -38.263,21.65 -61.588,9.254" style="fill:none;stroke:#fff;stroke-width:39.21px;stroke-linecap:round;stroke-miterlimit:1.5;"/><path d="M102.18,356.198c-57.058,-11.679 -86.281,26.644 -82.199,59.196c4.935,39.346 52.06,50.851 95.019,32.947" style="fill:none;stroke:#fff;stroke-width:39.21px;stroke-linecap:round;stroke-miterlimit:1.5;"/><path d="M706.232,359.314c-56.249,-15.1 -87.731,21.391 -85.619,54.13c2.552,39.572 48.897,53.898 92.858,38.618" style="fill:none;stroke:#fff;stroke-width:39.21px;stroke-linecap:round;stroke-miterlimit:1.5;"/><path d="M330.393,284.726c0.944,40.549 2.861,49.017 1.882,89.437c-0.097,4.001 0.557,74.366 -0.04,78.318" style="fill:none;stroke:#fff;stroke-width:39.21px;stroke-linecap:round;stroke-miterlimit:1.5;"/><path d="M406.93,283.56c-0.449,40.557 1.176,49.086 -1.189,89.449c-0.234,3.995 -1.996,74.341 -2.729,78.27" style="fill:none;stroke:#fff;stroke-width:39.21px;stroke-linecap:round;stroke-miterlimit:1.5;"/><path d="M1108.43,403.844c31.103,27.517 76.858,16.728 82.382,-7.488c3.98,-17.448 -16.026,-36.443 -39.896,-34.972c-39.015,2.404 -40.379,26.673 -41.617,34.567c-2.726,17.385 0.122,45.352 15.645,61.153c18.037,12.852 42.728,12.486 62.159,8.103" style="fill:none;stroke:#fff;stroke-width:39.21px;stroke-linecap:round;stroke-miterlimit:1.5;"/><path d="M470.855,393.827c31.103,27.517 76.858,16.727 82.382,-7.488c3.98,-17.449 -16.026,-36.444 -39.896,-34.973c-39.015,2.405 -40.379,26.673 -41.617,34.567c-2.726,17.386 0.122,45.353 15.645,61.153c18.037,12.852 42.728,12.487 62.159,8.104" style="fill:none;stroke:#fff;stroke-width:39.21px;stroke-linecap:round;stroke-miterlimit:1.5;"/><g><path d="M800.664,280.891c0.883,36.655 0.363,41.786 -1.285,89.804c-1.022,29.768 -2.536,77.014 -3.182,95.633" style="fill:none;stroke:#fff;stroke-width:39.21px;stroke-linecap:round;stroke-miterlimit:1.5;"/><path d="M762.684,370.226c11.397,2.983 20.295,7.13 69.912,10.351" style="fill:none;stroke:#fff;stroke-width:39.21px;stroke-linecap:round;stroke-miterlimit:1.5;"/></g><g><path d="M893.197,400.09c0,24.754 -2.14,53.163 -2.934,59.677" style="fill:none;stroke:#fff;stroke-width:39.21px;stroke-linecap:round;stroke-miterlimit:1.5;"/><path d="M893.344,344.987l0,0.652" style="fill:none;stroke:#fff;stroke-width:39.21px;stroke-linecap:round;stroke-miterlimit:1.5;"/></g><path d="M962.337,363.823c5.633,33.546 22.151,94.586 38.636,96.323c15.752,1.659 37.384,-74.276 40.928,-98.39" style="fill:none;stroke:#fff;stroke-width:39.21px;stroke-linecap:round;stroke-miterlimit:1.5;"/></g></svg>